<svg width="80" height="57" viewBox="0 0 80 57" fill="none" xmlns="http://www.w3.org/2000/svg">
<path d="M15.3474 48.2856C12.8034 48.2856 10.5114 47.7336 8.47141 46.6296C6.43141 45.5016 4.82341 43.9536 3.64741 41.9856C2.49541 40.0176 1.91941 37.8216 1.91941 35.3976C1.91941 32.9736 2.49541 30.7776 3.64741 28.8096C4.82341 26.8416 6.43141 25.3056 8.47141 24.2016C10.5114 23.0736 12.8034 22.5096 15.3474 22.5096C17.8674 22.5096 20.1474 23.0736 22.1874 24.2016C24.2274 25.3056 25.8234 26.8416 26.9754 28.8096C28.1274 30.7536 28.7034 32.9496 28.7034 35.3976C28.7034 37.8456 28.1274 40.0536 26.9754 42.0216C25.8234 43.9656 24.2274 45.5016 22.1874 46.6296C20.1474 47.7336 17.8674 48.2856 15.3474 48.2856ZM15.3474 45.0816C17.1954 45.0816 18.8514 44.6616 20.3154 43.8216C21.8034 42.9816 22.9674 41.8296 23.8074 40.3656C24.6714 38.8776 25.1034 37.2216 25.1034 35.3976C25.1034 33.5736 24.6714 31.9296 23.8074 30.4656C22.9674 28.9776 21.8034 27.8136 20.3154 26.9736C18.8514 26.1336 17.1954 25.7136 15.3474 25.7136C13.4994 25.7136 11.8194 26.1336 10.3074 26.9736C8.81941 27.8136 7.64341 28.9776 6.77941 30.4656C5.93941 31.9296 5.51941 33.5736 5.51941 35.3976C5.51941 37.2216 5.93941 38.8776 6.77941 40.3656C7.64341 41.8296 8.81941 42.9816 10.3074 43.8216C11.8194 44.6616 13.4994 45.0816 15.3474 45.0816ZM57.5698 47.9976L57.5338 29.6376L48.4258 44.9376H46.7698L37.6618 29.7456V47.9976H34.2058V22.7976H37.1578L47.6698 40.5096L58.0378 22.7976H60.9898L61.0258 47.9976H57.5698Z" fill="#333333"/>
<path d="M76.6783 12.6298L75.2649 12.1976C75.0688 12.1377 74.8618 12.1941 74.7294 12.3433C74.386 12.7309 74.0092 13.0994 73.6093 13.4387C70.6452 15.9537 66.9246 16.8125 62.85 15.9233C58.7957 15.0386 56.9322 12.692 54.353 9.44413C54.1686 9.21181 53.981 8.97557 53.7891 8.73572C53.7673 8.70834 53.7416 8.67238 53.7144 8.63438C53.6428 8.53432 53.5536 8.40981 53.4281 8.287C53.2576 8.12008 53.0719 7.96463 52.8761 7.82495C52.4716 7.53636 52.2018 7.08204 52.1361 6.57837L51.7024 3.25664C51.6836 3.11264 51.6098 2.97958 51.4971 2.88658C51.3846 2.79352 51.2423 2.74818 51.1017 2.76061L48.9617 2.94883C48.6692 2.97446 48.4637 3.23839 48.5027 3.5381L48.9187 6.72438C48.9642 7.07323 48.8514 7.42801 48.6092 7.69774C48.2393 8.10954 48.0509 8.61775 48.0642 9.16733C48.2326 16.1161 52.8916 21.2594 60.5271 22.9255C63.8224 23.6445 67.3266 23.2145 70.3941 21.7146C71.0115 21.4127 71.5957 21.0749 72.1441 20.7029C72.9085 20.1844 73.6034 19.5995 74.2215 18.9536C75.3264 17.7991 76.1295 16.5062 76.6087 15.111C76.8142 14.5124 76.971 13.8917 77.0744 13.266C77.1203 12.989 76.948 12.7123 76.6783 12.6298ZM49.6332 3.98755L50.7136 3.89253L51.0011 6.09432L50.5648 6.10498L49.9117 6.12096L49.6332 3.98755ZM71.5314 19.7872C68.5608 21.8018 64.5296 22.6956 60.7032 21.8607C53.613 20.3135 49.2877 15.5775 49.1329 9.19179C49.1246 8.84879 49.2808 8.60094 49.4132 8.45347C49.728 8.10287 49.9232 7.66841 49.9802 7.21018L51.1886 7.18062C51.3811 7.79383 51.7672 8.3339 52.2911 8.70756C52.4387 8.8129 52.5786 8.92988 52.7067 9.05532C52.7595 9.10696 52.8063 9.17256 52.8607 9.24848C52.8956 9.29729 52.9317 9.34768 52.9729 9.39924C53.1639 9.6383 53.3508 9.87352 53.5345 10.1049C56.1583 13.409 58.2307 16.0186 62.6737 16.9881C64.9004 17.474 67.0495 17.4727 69.0614 16.9844C70.8865 16.5414 72.5656 15.7073 74.0574 14.5031L74.0933 14.5206L74.2848 14.6142C73.5154 15.8093 72.5337 16.8047 71.3974 17.5753C68.9006 19.2686 65.662 19.879 62.3163 19.149C57.1068 18.0123 53.3962 15.2086 51.8678 11.2544C51.758 10.9702 51.4468 10.8198 51.1728 10.9184C50.8987 11.0169 50.7657 11.3273 50.8755 11.6116C52.548 15.9387 56.5485 18.9938 62.1401 20.2138C64.8685 20.8091 67.5783 20.5923 69.9764 19.5867C70.7048 19.2813 71.3903 18.9101 72.0272 18.478C73.3342 17.5915 74.4353 16.4491 75.2776 15.0992L75.424 15.1707C74.6694 17.0172 73.2854 18.5976 71.5314 19.7872ZM75.7706 14.1544L75.5521 14.0477L74.9213 13.7396C75.0568 13.6079 75.1891 13.4733 75.3175 13.3361L75.9274 13.5226C75.8817 13.7348 75.8294 13.9456 75.7706 14.1544Z" fill="black"/>
</svg>
