<svg width="49" height="47" viewBox="0 0 49 47" fill="none" xmlns="http://www.w3.org/2000/svg">
<path d="M41.25 0H7.5C3.36375 0 0 3.36375 0 7.5V45C0 45.7275 0.42 46.3913 1.08 46.6987C1.33125 46.815 1.605 46.875 1.875 46.875C2.30625 46.875 2.73375 46.725 3.075 46.44L13.8038 37.5H41.25C45.3862 37.5 48.75 34.1362 48.75 30V7.5C48.75 3.36375 45.3862 0 41.25 0ZM45 30C45 32.0662 43.32 33.75 41.25 33.75H13.125C12.6862 33.75 12.2625 33.9038 11.925 34.185L3.75 40.9987V7.5C3.75 5.43375 5.43 3.75 7.5 3.75H41.25C43.32 3.75 45 5.43375 45 7.5V30Z" fill="#2352DE"/>
</svg>
